PathFileType	4	(X/Y/Z)	marker.trc
DataRate	CameraRate	NumFrames	NumMarkers	Units	OrigDataRate	OrigDataStartFrame	OrigNumFrames
128	128	12	6	m	128	1284	2567
Frame#	Time	US29-1	US29-2	US29-3	US30-1	US30-2	US30-3	
		X1	Y1	Z1	X2	Y2	Z2	X3	Y3	Z3	X4	Y4	Z4	X5	Y5	Z5	X6	Y6	Z6	

1283	10.015625	0.177935570478439	0.332879960536957	0.125889182090759	0.19500520825386	0.357537418603897	0.100301198661327	0.17034475505352	0.354217976331711	0.129739373922348	0.115914180874825	0.340448766946793	0.075464740395546	-nan	-nan	-nan	0.112994022667408	0.349599331617355	0.0988915786147118	
1284	10.023437	0.182107761502266	0.336300164461136	0.12593100965023	0.198977366089821	0.361022800207138	0.10022958368063	0.174376115202904	0.35754606127739	0.129834219813347	0.120039708912373	0.343264937400818	0.0755690336227417	-nan	-nan	-nan	0.117060676217079	0.352388322353363	0.0990222245454788	
1285	10.03125	0.186158552765846	0.339641541242599	0.126089930534363	0.202739283442497	0.364546418190002	0.100612066686153	0.178239300847054	0.360832065343857	0.12993748486042	0.124501168727875	0.346109747886658	0.0755214467644691	-nan	-nan	-nan	0.120985604822636	0.355190694332123	0.0991673842072487	
1286	10.039062	0.190125018358231	0.342961132526398	0.126181617379189	0.206624194979668	0.368186771869659	0.100425638258457	0.181978285312653	0.364108175039291	0.130053877830505	0.128359824419022	0.348867326974869	0.0756219178438187	-nan	-nan	-nan	0.124740548431873	0.357952386140823	0.0993067100644112	
1287	10.046875	0.193879157304764	0.346289306879044	0.126349836587906	0.210485652089119	0.371780037879944	0.100681208074093	0.185649007558823	0.367351353168488	0.130200296640396	0.131671234965324	0.351728856563568	0.075960747897625	-nan	-nan	-nan	0.12848237156868	0.360735952854156	0.099443756043911	
1288	10.054687	0.197583168745041	0.349596172571182	0.12651152908802	0.213991418480873	0.375221014022827	0.101045608520508	0.189153641462326	0.370620667934418	0.130342528223991	0.135271370410919	0.354556292295456	0.0761385262012482	-nan	-nan	-nan	0.132069781422615	0.363503813743591	0.0995876640081406	
1289	10.0625	0.201270759105682	0.352903991937637	0.12664270401001	0.217280760407448	0.378618091344833	0.10142145305872	0.19256204366684	0.373812854290009	0.130500197410583	0.138892188668251	0.357306241989136	0.0762980952858925	-nan	-nan	-nan	0.135513186454773	0.366271734237671	0.0997179970145226	
1290	10.070312	0.204661920666695	0.356112837791443	0.126847416162491	0.220609530806541	0.382059872150421	0.102315999567509	0.196325376629829	0.376255929470062	0.133719027042389	0.142308622598648	0.36007097363472	0.0764772891998291	-nan	-nan	-nan	0.138912126421928	0.369242906570435	0.099812775850296	
1291	10.078125	0.207967936992645	0.359304159879684	0.127024710178375	0.223712891340256	0.385328382253647	0.102618008852005	0.19945439696312	0.379380762577057	0.134069353342056	0.145528018474579	0.362840741872787	0.0766400024294853	-nan	-nan	-nan	0.142005398869514	0.371940284967422	0.100016079843044	
1292	10.085937	0.211165562272072	0.362386077642441	0.127214670181274	0.226642549037933	0.38855567574501	0.102937765419483	0.202459886670113	0.382436782121658	0.134149149060249	0.14928911626339	0.365622192621231	0.0767502933740616	-nan	-nan	-nan	0.145093470811844	0.374542266130447	0.100236274302006	
1293	10.09375	0.214225754141808	0.365402817726135	0.127421200275421	0.22949980199337	0.39174473285675	0.103124909102917	0.205406993627548	0.385386019945145	0.134478330612183	0.152139469981194	0.368405789136887	0.0769904181361198	0.16334767639637	0.358973145484924	0.0984147787094116	0.148076415061951	0.377206742763519	0.100411534309387	
1294	10.101562	0.217175975441933	0.368410527706146	0.12759917974472	0.232235282659531	0.394854307174683	0.103193171322346	0.208253964781761	0.388319939374924	0.134585365653038	0.155099526047707	0.370993256568909	0.0771790370345116	0.16653174161911	0.361529529094696	0.0985192805528641	0.151003390550613	0.379744321107864	0.100607678294182	
